<?xml version="1.0" standalone="no"?>
<!DOCTYPE svg PUBLIC "-//W3C//DTD SVG 20010904//EN"
 "http://www.w3.org/TR/2001/REC-SVG-20010904/DTD/svg10.dtd">
<svg version="1.0" xmlns="http://www.w3.org/2000/svg"
 width="96.000000pt" height="96.000000pt" viewBox="0 0 96.000000 96.000000"
 preserveAspectRatio="xMidYMid meet">
<metadata>
Created by potrace 1.14, written by Peter Selinger 2001-2017
</metadata>
<g transform="translate(0.000000,96.000000) scale(0.100000,-0.100000)"
fill="#000000" stroke="none">
<path d="M0 843 c0 -64 2 -114 4 -112 5 6 110 180 125 207 12 22 11 22 -59 22
l-70 0 0 -117z"/>
<path d="M831 938 c15 -27 120 -201 125 -207 2 -2 4 48 4 112 l0 117 -70 0
c-70 0 -71 0 -59 -22z"/>
<path d="M182 878 c-14 -18 -92 -147 -92 -153 0 -3 176 -5 391 -5 215 0 389 4
387 8 -1 4 -23 43 -48 85 l-45 77 -291 0 c-221 0 -294 -3 -302 -12z"/>
<path d="M215 574 c-19 -19 -13 -65 17 -134 90 -209 389 -215 492 -10 30 59
39 126 19 145 -8 8 -18 15 -23 15 -18 0 -40 -33 -40 -61 0 -36 -29 -96 -62
-126 -115 -108 -312 -40 -337 116 -11 67 -34 87 -66 55z"/>
<path d="M0 17 c0 -10 8 -17 18 -17 9 0 13 4 7 8 -5 4 -13 11 -17 16 -5 5 -8
2 -8 -7z"/>
<path d="M942 15 c-11 -12 -10 -15 3 -15 8 0 15 7 15 15 0 18 -2 18 -18 0z"/>
</g>
</svg>
