<svg width="56" height="56" viewBox="0 0 56 56" fill="none" xmlns="http://www.w3.org/2000/svg">
<path d="M46.6666 28V51.3333H9.33325V28" stroke="#7644E1" stroke-width="4" stroke-linecap="round" stroke-linejoin="round"/>
<path d="M51.3334 16.3333H4.66675V28H51.3334V16.3333Z" stroke="#7644E1" stroke-width="4" stroke-linecap="round" stroke-linejoin="round"/>
<path d="M28 51.3333V16.3333" stroke="#7644E1" stroke-width="4" stroke-linecap="round" stroke-linejoin="round"/>
<path d="M28.0001 16.3334H17.5001C15.953 16.3334 14.4693 15.7188 13.3753 14.6248C12.2813 13.5308 11.6667 12.0471 11.6667 10.5C11.6667 8.95292 12.2813 7.46919 13.3753 6.37523C14.4693 5.28127 15.953 4.66669 17.5001 4.66669C25.6667 4.66669 28.0001 16.3334 28.0001 16.3334Z" stroke="#7644E1" stroke-width="4" stroke-linecap="round" stroke-linejoin="round"/>
<path d="M28 16.3334H38.5C40.0471 16.3334 41.5308 15.7188 42.6248 14.6248C43.7188 13.5308 44.3333 12.0471 44.3333 10.5C44.3333 8.95292 43.7188 7.46919 42.6248 6.37523C41.5308 5.28127 40.0471 4.66669 38.5 4.66669C30.3333 4.66669 28 16.3334 28 16.3334Z" stroke="#7644E1" stroke-width="4" stroke-linecap="round" stroke-linejoin="round"/>
</svg>
