<svg xmlns="http://www.w3.org/2000/svg" xmlns:xlink="http://www.w3.org/1999/xlink" version="1.1" x="0px" y="0px" viewBox="0 0 24 30" enable-background="new 0 0 24 24" xml:space="preserve"><g><path d="M23.083,23.733H0.917c-0.359,0-0.65-0.291-0.65-0.65V0.917c0-0.359,0.291-0.65,0.65-0.65h22.167   c0.359,0,0.65,0.291,0.65,0.65v22.167C23.734,23.442,23.443,23.733,23.083,23.733z M1.567,22.434h20.866V1.566H1.567V22.434z"/><g><path d="M6.741,15.941c-0.166,0-0.333-0.063-0.46-0.19l-3.422-3.423c-0.254-0.254-0.254-0.665,0-0.919l3.422-3.422    c0.254-0.254,0.666-0.254,0.92,0c0.254,0.253,0.254,0.665,0,0.919l-2.963,2.963l2.963,2.963c0.254,0.254,0.254,0.666,0,0.919    C7.074,15.878,6.907,15.941,6.741,15.941z"/><path d="M17.258,15.941c-0.166,0-0.333-0.063-0.46-0.19c-0.254-0.254-0.254-0.665,0-0.919l2.964-2.963l-2.964-2.963    c-0.254-0.253-0.254-0.665,0-0.919s0.666-0.254,0.92,0l3.423,3.422c0.121,0.122,0.19,0.287,0.19,0.459s-0.069,0.338-0.19,0.459    l-3.423,3.423C17.591,15.878,17.424,15.941,17.258,15.941z"/><path d="M9.372,16.595c-0.125,0-0.252-0.036-0.363-0.111c-0.297-0.201-0.375-0.605-0.174-0.903l5.336-7.89    c0.199-0.296,0.604-0.375,0.902-0.174c0.297,0.201,0.375,0.605,0.174,0.903l-5.336,7.89C9.786,16.495,9.581,16.595,9.372,16.595z"/></g></g><text x="0" y="39" fill="#000000" font-size="5px" font-weight="bold" font-family="'Helvetica Neue', Helvetica, Arial-Unicode, Arial, Sans-serif">Created by Atif Arshad</text><text x="0" y="44" fill="#000000" font-size="5px" font-weight="bold" font-family="'Helvetica Neue', Helvetica, Arial-Unicode, Arial, Sans-serif">from the Noun Project</text></svg>